<?xml version="1.0" standalone="no"?>
<!DOCTYPE svg PUBLIC "-//W3C//DTD SVG 20010904//EN" "http://www.w3.org/TR/2001/REC-SVG-20010904/DTD/svg10.dtd">
<svg xmlns="http://www.w3.org/2000/svg" version="1.0" width="348.000000pt" height="348.000000pt" viewBox="0 0 348.000000 348.000000" preserveAspectRatio="xMidYMid meet">
<metadata>
Created by potrace 1.16, written by Peter Selinger 2001-2019
<meta name="Producer" content="Online-Convert"/></metadata>
<g transform="translate(0.000000,348.000000) scale(0.100000,-0.100000)" fill="#000000" stroke="none">
<path d="M1661 3095 c-104 -29 -183 -101 -221 -201 -57 -150 19 -333 165 -395 l55 -24 -2 -109 -3 -109 -345 -2 c-392 -2 -420 -6 -539 -86 -134 -89 -212 -221 -229 -388 l-7 -72 -51 -18 c-293 -99 -388 -462 -183 -696 41 -46 124 -100 186 -120 51 -17 52 -18 59 -63 22 -155 132 -310 268 -379 117 -60 78 -57 871 -61 472 -2 758 1 810 7 215 29 398 204 436 418 l11 61 51 17 c248 80 368 366 251 600 -53 105 -138 179 -248 216 l-51 18 -6 63 c-23 225 -154 393 -358 460 -62 20 -88 22 -411 23 l-345 2 -3 109 -2 109 55 24 c103 44 174 149 182 271 15 209 -195 381 -396 325z m159 -177 c55 -38 75 -73 75 -133 0 -88 -67 -155 -155 -155 -88 0 -155 67 -155 155 0 88 67 155 155 155 32 0 57 -7 80 -22z m755 -858 c73 -36 147 -114 176 -185 l24 -60 0 -500 0 -500 -24 -60 c-33 -82 -116 -164 -194 -193 -57 -22 -63 -22 -817 -22 -754 0 -760 0 -817 22 -78 29 -161 111 -194 193 l-24 60 0 495 c0 452 2 500 18 547 34 98 118 181 217 216 40 14 134 16 815 14 l770 -2 50 -25z m-2035 -775 c0 -140 -4 -255 -8 -255 -24 0 -106 66 -131 105 -62 98 -62 201 -2 297 25 39 110 108 133 108 4 0 8 -115 8 -255z m2465 223 c90 -60 139 -177 115 -276 -17 -71 -62 -137 -117 -172 -26 -17 -51 -30 -55 -30 -4 0 -8 115 -8 255 0 140 4 255 8 255 5 0 30 -14 57 -32z"/>
<path d="M1087 1729 c-58 -14 -92 -35 -131 -81 -79 -92 -76 -230 7 -316 52 -55 103 -76 177 -76 103 1 176 49 219 144 79 175 -86 374 -272 329z m108 -184 c49 -49 16 -125 -55 -125 -30 0 -43 6 -59 26 -62 79 43 170 114 99z"/>
<path d="M2277 1726 c-167 -46 -232 -255 -119 -386 50 -59 103 -83 182 -84 137 -1 240 101 240 239 0 66 -16 108 -60 159 -61 69 -153 96 -243 72z m122 -182 c27 -35 26 -66 -2 -100 -45 -52 -137 -17 -137 52 0 66 98 100 139 48z"/>
<path d="M1467 978 c-24 -19 -38 -64 -27 -92 20 -53 34 -56 300 -56 266 0 280 3 300 56 11 29 -5 81 -30 94 -29 15 -522 13 -543 -2z"/>
</g>
</svg>
