<?xml version="1.0" standalone="no"?>
<!DOCTYPE svg PUBLIC "-//W3C//DTD SVG 20010904//EN" "http://www.w3.org/TR/2001/REC-SVG-20010904/DTD/svg10.dtd">
<svg xmlns="http://www.w3.org/2000/svg" version="1.0" width="512.000000pt" height="512.000000pt" viewBox="0 0 512.000000 512.000000" preserveAspectRatio="xMidYMid meet">
<metadata>
Created by potrace 1.16, written by Peter Selinger 2001-2019
<meta name="Producer" content="Online-Convert"/></metadata>
<g transform="translate(0.000000,512.000000) scale(0.100000,-0.100000)" fill="#000000" stroke="none">
<path d="M1681 4783 c-18 -9 -48 -39 -66 -67 -18 -28 -388 -681 -821 -1451 -777 -1378 -789 -1401 -792 -1460 l-3 -60 115 -190 c617 -1022 722 -1190 755 -1212 l34 -23 1657 0 1657 0 33 22 c25 17 143 197 452 693 l419 670 -3 60 -3 60 -895 1464 c-611 998 -905 1470 -925 1485 -30 21 -30 21 -805 23 -706 3 -778 1 -809 -14z m2196 -1558 c420 -687 771 -1262 779 -1277 l15 -28 -609 0 -609 0 -698 1258 c-384 691 -705 1267 -713 1280 l-14 22 542 -2 542 -3 765 -1250z m-1806 519 c248 -444 298 -542 291 -559 -14 -28 -1392 -2368 -1400 -2377 -8 -8 -615 989 -610 1001 23 57 1405 2488 1411 2482 4 -4 143 -250 308 -547z m748 -1356 l258 -463 -269 -3 c-147 -1 -389 -1 -537 0 l-268 3 275 468 c151 257 277 465 280 463 2 -3 120 -213 261 -468z"/>
</g>
</svg>
