<?xml version="1.0" standalone="no"?>
<!DOCTYPE svg PUBLIC "-//W3C//DTD SVG 20010904//EN" "http://www.w3.org/TR/2001/REC-SVG-20010904/DTD/svg10.dtd">
<svg xmlns="http://www.w3.org/2000/svg" version="1.0" width="256.000000pt" height="256.000000pt" viewBox="0 0 256.000000 256.000000" preserveAspectRatio="xMidYMid meet">
<metadata>
Created by potrace 1.16, written by Peter Selinger 2001-2019
<meta name="Producer" content="Online-Convert"/></metadata>
<g transform="translate(0.000000,256.000000) scale(0.100000,-0.100000)" fill="#000000" stroke="none">
<path d="M1049 2457 c-20 -12 -62 -50 -94 -85 -48 -52 -55 -65 -45 -77 10 -12 9 -20 -4 -40 -19 -28 -27 -30 -44 -13 -10 10 -28 -3 -87 -67 -41 -44 -87 -98 -102 -119 l-28 -39 -5 -243 c-3 -164 -9 -247 -16 -255 -7 -6 -80 -30 -162 -54 -83 -24 -167 -51 -186 -60 -59 -28 -130 -99 -161 -162 l-30 -58 -3 -450 c-2 -295 1 -462 7 -486 15 -49 81 -123 134 -148 43 -21 50 -21 1055 -21 1117 0 1044 -4 1120 65 76 68 82 93 82 328 0 200 -1 207 -20 207 -17 0 -20 7 -20 40 0 34 3 40 21 40 20 0 20 3 17 213 l-3 212 -30 58 c-31 63 -102 134 -161 162 -19 9 -104 36 -187 60 -94 27 -156 50 -164 61 -10 13 -13 75 -13 241 0 165 -4 232 -14 256 -17 42 -348 405 -395 434 -34 22 -46 23 -231 23 -185 0 -197 -1 -231 -23z m191 -217 l0 -160 -180 0 -180 0 0 -40 0 -40 400 0 400 0 0 40 0 40 -180 0 -180 0 0 161 0 162 60 -6 c34 -3 71 -12 84 -21 27 -17 326 -341 349 -378 8 -12 18 -36 21 -53 l6 -30 -560 0 c-308 0 -560 2 -560 5 0 38 32 90 105 170 84 94 95 113 74 125 -7 5 -2 16 12 31 17 19 25 21 36 12 11 -9 28 2 82 56 70 70 98 84 169 85 l42 1 0 -160z m-40 -680 l0 -40 40 0 40 0 0 40 0 40 200 0 200 0 0 -22 c0 -35 -22 -71 -105 -168 l-76 -90 -203 0 -202 0 -97 98 c-53 54 -101 111 -107 126 -21 57 -24 56 150 56 l160 0 0 -40z m748 -332 c17 -17 17 -879 0 -896 -17 -17 -1319 -17 -1336 0 -9 9 -12 103 -12 360 0 341 0 348 -20 348 -17 0 -20 7 -20 40 0 33 3 40 20 40 17 0 20 7 20 48 0 26 5 53 12 60 17 17 1319 17 1336 0z m-1432 -975 c-8 -21 -87 -72 -128 -83 -70 -20 -169 24 -203 90 -33 64 -9 168 48 210 11 8 79 41 151 72 l131 56 3 -166 c1 -91 0 -172 -2 -179z m1669 286 c140 -60 157 -72 184 -120 47 -83 18 -180 -68 -228 -76 -42 -153 -30 -230 35 l-31 26 0 175 c0 136 3 174 13 170 6 -3 66 -29 132 -58z m-225 -327 c0 -15 -5 -33 -12 -40 -17 -17 -1319 -17 -1336 0 -7 7 -12 25 -12 40 l0 28 680 0 680 0 0 -28z"/>
<path d="M1215 906 c-101 -44 -125 -178 -46 -257 65 -65 157 -65 222 0 124 124 -15 327 -176 257z m120 -91 c50 -49 15 -135 -55 -135 -19 0 -40 9 -55 25 -16 15 -25 36 -25 55 0 19 9 40 25 55 15 16 36 25 55 25 19 0 40 -9 55 -25z"/>
</g>
</svg>
