<?xml version="1.0" standalone="no"?>
<!DOCTYPE svg PUBLIC "-//W3C//DTD SVG 20010904//EN" "http://www.w3.org/TR/2001/REC-SVG-20010904/DTD/svg10.dtd">
<svg xmlns="http://www.w3.org/2000/svg" version="1.0" width="820.000000pt" height="820.000000pt" viewBox="0 0 820.000000 820.000000" preserveAspectRatio="xMidYMid meet">
<metadata>
Created by potrace 1.16, written by Peter Selinger 2001-2019
<meta name="Producer" content="Online-Convert"/></metadata>
<g transform="translate(0.000000,820.000000) scale(0.100000,-0.100000)" fill="#000000" stroke="none">
<path d="M2107 7518 c-435 -27 -856 -255 -1121 -608 -151 -201 -262 -468 -296 -710 -14 -99 -14 -346 0 -440 75 -495 377 -918 820 -1149 157 -82 346 -139 553 -166 l47 -6 0 -307 0 -306 -68 67 c-37 37 -72 67 -78 67 -5 0 -43 -34 -84 -75 l-75 -75 208 -208 207 -207 200 200 c110 110 200 204 200 210 0 6 -34 44 -75 85 l-75 74 -70 -69 -70 -69 0 306 0 307 48 6 c192 23 360 73 529 156 306 150 530 374 690 687 29 56 56 101 60 100 8 -2 27 -28 144 -198 362 -525 406 -585 511 -687 151 -147 383 -288 574 -348 l81 -26 6 -112 c3 -62 4 -308 3 -547 l-1 -435 -124 -205 c-155 -256 -175 -297 -195 -392 -24 -114 -24 -1363 -1 -1453 31 -119 102 -206 213 -262 51 -25 67 -28 162 -28 94 0 111 3 160 27 109 54 174 130 210 246 19 61 20 95 20 713 l0 650 121 197 c67 108 125 201 129 205 4 5 14 -13 23 -40 8 -26 68 -214 132 -418 64 -203 145 -460 180 -570 35 -110 105 -330 155 -489 50 -159 100 -308 111 -331 28 -60 99 -129 167 -162 51 -25 68 -28 157 -28 89 0 106 3 157 28 80 39 157 125 186 207 43 124 36 168 -82 571 -57 195 -108 370 -114 389 -5 19 -82 281 -171 581 l-161 546 0 394 c1 365 2 391 16 359 9 -19 65 -154 126 -300 254 -610 259 -622 306 -672 52 -56 107 -90 181 -112 187 -55 389 55 454 248 23 67 22 179 -2 247 -10 30 -127 326 -260 659 -158 394 -258 629 -286 675 -127 205 -345 339 -588 362 l-68 6 29 31 c51 53 110 145 141 219 88 212 79 435 -26 647 -40 80 -62 110 -143 190 -105 106 -190 158 -330 201 -64 20 -96 24 -215 24 -126 0 -148 -3 -225 -28 -258 -85 -440 -272 -513 -527 l-25 -85 -107 216 -108 216 127 319 c71 175 130 322 133 327 2 4 -173 6 -389 5 l-393 -3 -135 -225 c-94 -156 -140 -224 -150 -221 -8 2 -59 6 -113 9 -89 4 -98 6 -102 26 -22 107 -63 255 -87 316 -171 432 -515 760 -949 904 -196 65 -381 88 -602 74z m350 -229 c43 -6 83 -14 88 -19 6 -4 28 -11 50 -15 81 -14 341 -137 353 -167 2 -4 9 -8 14 -8 16 0 154 -116 214 -180 57 -60 144 -166 144 -174 0 -3 12 -22 26 -43 30 -44 114 -216 114 -233 0 -7 7 -26 15 -43 21 -45 63 -235 64 -289 l1 -28 -114 0 -114 0 -5 38 c-23 162 -80 310 -173 453 -74 113 -160 203 -264 279 -119 87 -187 123 -305 160 -38 12 -80 26 -93 31 -51 20 -250 30 -374 19 -68 -6 -127 -15 -133 -19 -5 -5 -28 -12 -50 -16 -22 -4 -44 -10 -50 -15 -5 -4 -28 -13 -50 -20 -243 -77 -538 -372 -615 -615 -7 -22 -16 -44 -20 -50 -5 -5 -11 -28 -15 -50 -4 -22 -11 -45 -16 -50 -18 -24 -31 -259 -20 -369 11 -111 14 -123 59 -256 102 -301 358 -557 662 -662 208 -72 410 -83 624 -34 430 98 772 475 833 919 l5 37 65 0 c51 0 64 -3 60 -13 -8 -22 22 -148 43 -185 19 -32 19 -71 0 -97 -4 -5 -10 -23 -14 -40 -12 -51 -113 -243 -172 -327 -139 -196 -368 -375 -589 -458 -33 -12 -69 -26 -80 -31 -11 -4 -63 -18 -115 -31 -83 -20 -120 -23 -285 -23 -203 0 -238 5 -410 58 -332 102 -631 360 -784 677 -73 153 -91 206 -117 350 -15 89 -18 358 -4 450 56 363 287 709 610 911 91 57 238 124 308 140 26 6 56 15 67 20 58 27 414 39 562 18z m8 -457 c158 -53 256 -112 368 -221 112 -109 198 -247 232 -375 7 -28 15 -58 18 -66 3 -8 8 -30 11 -47 l6 -33 -231 0 c-210 0 -230 1 -235 18 -3 9 -18 44 -34 77 -102 208 -375 294 -582 183 -73 -39 -161 -131 -194 -202 -74 -161 -44 -351 73 -477 94 -101 190 -142 330 -143 50 0 98 5 105 11 7 6 26 13 42 17 42 10 130 71 172 120 39 44 84 129 84 159 0 16 18 17 234 17 l235 0 -6 -37 c-3 -21 -10 -46 -14 -55 -5 -9 -9 -25 -9 -35 0 -29 -83 -203 -127 -268 -47 -67 -155 -175 -223 -222 -56 -38 -150 -86 -210 -105 -25 -9 -61 -21 -80 -28 -47 -16 -302 -25 -365 -12 -188 39 -340 120 -467 249 -80 80 -113 125 -162 215 -64 117 -88 205 -93 357 -6 134 9 295 28 307 5 3 9 14 9 24 0 34 93 203 152 275 79 99 219 209 316 251 144 62 210 73 397 70 128 -3 172 -7 220 -24z m2235 -421 c0 -5 -4 -20 -9 -33 -6 -13 -34 -81 -63 -153 l-53 -130 -199 -3 c-186 -2 -198 -1 -192 15 6 15 113 196 172 291 14 21 19 22 179 22 96 0 165 -4 165 -9z m-2352 -249 c23 -19 47 -43 53 -53 9 -18 5 -19 -86 -19 l-95 0 0 -110 0 -110 96 0 96 0 -14 -22 c-8 -13 -34 -36 -57 -53 -39 -27 -50 -30 -124 -30 -75 0 -85 3 -119 28 -20 16 -49 45 -65 65 -26 34 -28 44 -28 122 0 78 2 89 30 129 17 25 50 54 75 68 38 21 56 24 120 21 69 -3 80 -6 118 -36z m1587 -203 c17 -12 55 -55 85 -95 30 -41 74 -98 96 -127 23 -29 54 -71 70 -93 16 -23 63 -86 104 -140 41 -54 89 -117 105 -140 93 -130 306 -405 353 -455 90 -97 221 -180 327 -208 28 -7 62 -17 76 -22 14 -6 95 -13 179 -17 l154 -7 -3 -50 c-2 -27 -9 -147 -17 -265 -7 -118 -21 -327 -29 -465 l-15 -250 163 -162 162 -163 168 167 169 166 -6 41 c-9 66 -25 289 -31 451 -4 83 -10 173 -15 200 -5 28 -12 114 -16 193 l-6 142 195 0 c108 0 198 -4 201 -9 3 -4 24 -11 47 -15 35 -6 76 -24 163 -73 43 -24 126 -120 160 -184 19 -37 87 -199 151 -360 64 -162 122 -307 129 -324 8 -16 39 -95 71 -175 31 -80 72 -182 91 -227 19 -45 34 -85 34 -90 1 -4 9 -26 20 -48 28 -57 27 -142 -3 -186 -30 -46 -106 -83 -151 -75 -42 8 -94 43 -112 76 -7 14 -39 86 -70 160 -31 74 -62 149 -69 165 -7 17 -32 75 -54 130 -23 55 -46 109 -51 120 -15 35 -87 207 -130 310 -23 55 -47 114 -54 130 -7 17 -33 76 -57 133 l-44 102 -142 0 -143 0 -2 -552 -3 -553 -492 -3 -493 -2 -2 597 -3 596 -95 22 c-131 29 -159 39 -300 103 -66 30 -192 112 -267 174 -121 100 -157 146 -454 573 -57 83 -127 184 -156 225 -284 408 -273 390 -273 436 0 53 24 101 64 125 46 28 178 27 221 -2z m2015 -10 c97 -43 121 -59 185 -124 68 -68 120 -158 149 -257 20 -71 21 -203 1 -271 -59 -198 -188 -333 -377 -397 -59 -20 -82 -22 -187 -18 -65 2 -125 8 -133 14 -7 5 -31 16 -53 23 -139 47 -289 220 -325 373 -13 57 -13 233 1 283 41 152 173 308 307 361 20 8 46 19 57 24 37 17 60 19 190 16 112 -3 137 -6 185 -27z m-1315 -182 c27 -56 51 -105 53 -109 2 -5 -53 -8 -122 -8 -112 0 -126 2 -135 19 -6 10 -40 56 -76 101 -36 46 -65 87 -65 92 0 4 66 8 148 8 l147 -1 50 -102z m344 -394 c5 -138 61 -286 154 -409 55 -71 46 -77 -49 -34 -118 53 -163 96 -311 293 -75 100 -140 188 -146 195 -7 9 28 12 170 12 l180 0 2 -57z m821 -785 c0 -39 5 -110 10 -157 6 -47 18 -203 26 -346 8 -143 18 -286 21 -319 l5 -58 -53 -54 c-29 -30 -56 -54 -60 -54 -3 0 -30 24 -59 52 l-52 53 7 150 c4 82 11 197 16 255 5 58 13 200 20 315 6 116 12 216 15 223 2 7 22 12 54 12 l50 0 0 -72z m-298 -1711 c-13 -15 -172 -268 -172 -273 0 -1 -25 -42 -55 -91 -30 -48 -60 -103 -65 -123 -6 -21 -10 -291 -10 -680 -1 -680 -2 -692 -47 -742 -27 -30 -88 -58 -125 -58 -43 0 -107 37 -134 78 -19 28 -23 51 -29 184 -3 84 -5 396 -2 693 3 456 6 546 19 580 9 22 57 108 106 190 50 83 105 174 122 203 l30 52 186 0 c153 0 184 -2 176 -13z m733 -23 c3 -20 10 -44 15 -53 5 -9 16 -41 24 -71 8 -30 22 -80 31 -110 9 -30 25 -85 36 -122 10 -38 28 -98 38 -135 11 -38 27 -93 36 -123 9 -30 25 -84 35 -120 18 -64 79 -271 99 -340 20 -65 72 -245 117 -400 24 -85 51 -177 59 -204 34 -110 11 -202 -61 -243 -48 -28 -84 -29 -134 -3 -60 31 -45 -9 -256 660 -69 217 -140 442 -159 500 -18 58 -52 166 -75 240 -23 74 -48 153 -55 175 -8 22 -37 114 -66 205 -28 91 -54 168 -56 173 -2 4 79 7 180 7 l185 0 7 -36z"/>
<path d="M1150 3330 c-223 -34 -406 -201 -461 -420 -11 -45 -13 -217 -13 -905 1 -777 2 -855 18 -910 56 -193 208 -341 401 -390 51 -13 228 -15 1345 -15 1122 0 1293 2 1345 15 173 45 304 157 377 325 l33 75 3 875 c2 607 -1 890 -8 927 -38 181 -193 344 -390 409 -52 18 -122 19 -1325 20 -698 1 -1295 -2 -1325 -6z m2667 -252 c60 -39 109 -94 138 -151 l25 -51 0 -855 0 -856 -29 -61 c-34 -73 -83 -124 -154 -162 l-52 -27 -1305 0 -1305 0 -53 28 c-64 33 -119 87 -152 147 l-25 45 -3 869 -2 870 25 53 c27 54 93 133 112 133 6 0 16 7 23 15 7 8 27 19 44 24 18 6 579 9 1352 8 l1320 -2 41 -27z"/>
<path d="M1120 2560 l0 -331 108 3 107 3 3 143 3 144 119 -115 c209 -202 439 -363 710 -499 102 -51 199 -98 215 -105 17 -6 60 -23 97 -37 36 -14 71 -26 77 -26 6 0 19 -4 29 -10 9 -5 44 -17 77 -26 33 -8 85 -22 115 -31 68 -19 231 -50 330 -64 41 -5 98 -14 125 -19 28 -5 107 -11 178 -13 l127 -3 0 107 0 108 -122 4 c-131 4 -390 32 -423 47 -11 4 -54 15 -95 23 -86 17 -156 35 -185 47 -11 5 -38 14 -60 20 -22 6 -49 15 -60 20 -11 4 -47 18 -80 31 -33 12 -116 49 -185 81 -271 128 -484 274 -744 512 l-99 91 144 5 144 5 3 108 3 107 -331 0 -330 0 0 -330z"/>
<path d="M3016 2880 c-102 -18 -224 -100 -283 -193 -69 -110 -87 -257 -44 -372 61 -164 167 -254 339 -290 64 -13 80 -13 145 0 155 33 253 107 319 243 40 82 41 88 40 181 0 79 -5 107 -26 160 -58 144 -183 247 -329 271 -70 11 -91 11 -161 0z m207 -240 c79 -53 109 -134 93 -245 -6 -37 -17 -55 -57 -95 -28 -28 -58 -50 -69 -50 -10 0 -22 -4 -25 -10 -9 -15 -108 -12 -148 5 -45 19 -105 78 -123 121 -8 18 -14 60 -14 92 0 48 6 67 33 111 47 78 98 103 198 99 61 -2 83 -8 112 -28z"/>
<path d="M1335 1790 l-69 -69 34 -37 c19 -19 74 -74 123 -122 48 -47 87 -90 87 -96 0 -6 -55 -66 -122 -133 l-123 -123 75 -75 75 -75 128 127 129 128 124 -130 124 -130 75 75 75 75 -127 127 -128 128 128 128 127 127 -75 75 -75 75 -128 -128 -127 -127 -125 125 c-69 69 -127 125 -130 125 -3 -1 -36 -32 -75 -70z"/>
</g>
</svg>
